<?xml version="1.0" encoding="UTF-8" standalone="no"?>
<!-- Created with Inkscape (http://www.inkscape.org/) -->

<svg
   xmlns:dc="http://purl.org/dc/elements/1.1/"
   xmlns:cc="http://creativecommons.org/ns#"
   xmlns:rdf="http://www.w3.org/1999/02/22-rdf-syntax-ns#"
   xmlns:svg="http://www.w3.org/2000/svg"
   xmlns="http://www.w3.org/2000/svg"
   xmlns:xlink="http://www.w3.org/1999/xlink"
   xmlns:sodipodi="http://sodipodi.sourceforge.net/DTD/sodipodi-0.dtd"
   xmlns:inkscape="http://www.inkscape.org/namespaces/inkscape"
   width="744.09448819"
   height="1052.3622047"
   id="svg2"
   version="1.1"
   inkscape:version="0.47 r22583"
   sodipodi:docname="edit.svg">
  <defs
     id="defs4">
    <linearGradient
       inkscape:collect="always"
       id="linearGradient3739">
      <stop
         style="stop-color:#805050;stop-opacity:1;"
         offset="0"
         id="stop3741" />
      <stop
         style="stop-color:#fff3f3;stop-opacity:1"
         offset="1"
         id="stop3743" />
    </linearGradient>
    <linearGradient
       inkscape:collect="always"
       id="linearGradient3729">
      <stop
         style="stop-color:#f1dbdb;stop-opacity:1"
         offset="0"
         id="stop3731" />
      <stop
         style="stop-color:#8a8a8a;stop-opacity:0;"
         offset="1"
         id="stop3733" />
    </linearGradient>
    <inkscape:perspective
       sodipodi:type="inkscape:persp3d"
       inkscape:vp_x="0 : 526.18109 : 1"
       inkscape:vp_y="0 : 1000 : 0"
       inkscape:vp_z="744.09448 : 526.18109 : 1"
       inkscape:persp3d-origin="372.04724 : 350.78739 : 1"
       id="perspective10" />
    <filter
       inkscape:collect="always"
       id="filter3774"
       x="-0.12324234"
       width="1.2464847"
       y="-0.11877558"
       height="1.2375512">
      <feGaussianBlur
         inkscape:collect="always"
         stdDeviation="47.403534"
         id="feGaussianBlur3776" />
    </filter>
    <linearGradient
       inkscape:collect="always"
       xlink:href="#linearGradient3729"
       id="linearGradient3778"
       gradientUnits="userSpaceOnUse"
       x1="413.57437"
       y1="-176.74281"
       x2="920.79657"
       y2="334.60785"
       gradientTransform="matrix(0.68396114,0,0,0.68396114,35.46954,403.50859)" />
    <linearGradient
       inkscape:collect="always"
       xlink:href="#linearGradient3739"
       id="linearGradient3780"
       gradientUnits="userSpaceOnUse"
       x1="944.56036"
       y1="177.02406"
       x2="567.11755"
       y2="-203.97058"
       gradientTransform="matrix(0.68396114,0,0,0.68396114,35.46954,403.50859)" />
  </defs>
  <sodipodi:namedview
     id="base"
     pagecolor="#ffffff"
     bordercolor="#666666"
     borderopacity="1.0"
     inkscape:pageopacity="0.0"
     inkscape:pageshadow="2"
     inkscape:zoom="0.12374369"
     inkscape:cx="110.2196"
     inkscape:cy="882.59759"
     inkscape:document-units="px"
     inkscape:current-layer="layer1"
     showgrid="false"
     inkscape:window-width="1405"
     inkscape:window-height="681"
     inkscape:window-x="0"
     inkscape:window-y="0"
     inkscape:window-maximized="0" />
  <metadata
     id="metadata7">
    <rdf:RDF>
      <cc:Work
         rdf:about="">
        <dc:format>image/svg+xml</dc:format>
        <dc:type
           rdf:resource="http://purl.org/dc/dcmitype/StillImage" />
        <dc:title></dc:title>
      </cc:Work>
    </rdf:RDF>
  </metadata>
  <g
     inkscape:label="Layer 1"
     inkscape:groupmode="layer"
     id="layer1">
    <path
       style="fill:#040404;fill-opacity:1;stroke:none;filter:url(#filter3774)"
       d="m 675.33137,54.6303 c -45.4327,-0.0902 -81.5758,20.82294 -105.8438,40.9375 l -13.625,-13.71875 -174.625,178.625 16.4375,16.5625 -404.1561958,408.53125 -3,-0.3125 c 0,0 -0.015,0.78124 0,2.09375 l -1.4063002,0.15625 0,166.46875 0,131.28125 144.843796,0 131.4687,0 c 12.0505,1.69679 22.25,0 22.25,0 l 0,-1.34375 409.8125,-404.9375 14.125,14.21875 176.8438,-176.34375 -16.0938,-16.21875 c 39.0657,-48.21072 80.774,-143.19824 -40.5,-265.90625 C 772.55637,74.7165 719.54847,54.71809 675.33137,54.6303 z m -236.2188,954.8438 c -0.8284,0 -1.5,0.6715 -1.5,1.5 0,0.8284 0.6716,1.5 1.5,1.5 0.8285,0 1.5,-0.6716 1.5,-1.5 0,-0.8285 -0.6715,-1.5 -1.5,-1.5 z"
       id="path3747"
       transform="matrix(0.68396114,0,0,0.68396114,57.578533,226.63689)"
       inkscape:export-filename="/Users/andersbr/rails/coop/public/images/web_decorations/edit.png"
       inkscape:export-xdpi="2.3311617"
       inkscape:export-ydpi="2.3311617" />
    <path
       id="path3623"
       d="m 423.35593,316.95518 c 0,0 82.43216,-120.35276 203.17839,1.82125 121.93381,123.37574 2.98556,205.80974 2.98556,205.80974 L 423.35593,316.95518 z"
       style="fill:#805050;fill-opacity:1;stroke:none"
       sodipodi:nodetypes="cscc"
       inkscape:export-filename="/Users/andersbr/rails/coop/public/images/web_decorations/edit.png"
       inkscape:export-xdpi="2.3311617"
       inkscape:export-ydpi="2.3311617" />
    <path
       sodipodi:nodetypes="cscc"
       style="opacity:0.23360656;fill:url(#linearGradient3780);fill-opacity:1;stroke:none"
       d="m 423.35593,316.95518 c 0,0 82.43216,-120.35276 203.17839,1.82125 121.93381,123.37574 2.98556,205.80974 2.98556,205.80974 L 423.35593,316.95518 z"
       id="path3737"
       inkscape:export-filename="/Users/andersbr/rails/coop/public/images/web_decorations/edit.png"
       inkscape:export-xdpi="2.3311617"
       inkscape:export-ydpi="2.3311617" />
    <path
       style="fill:#f2dcb8;fill-opacity:1;stroke:none"
       d="m 50.122997,696.87358 0,203.63679 204.217043,0 0,-226.69001 -204.217043,23.05322 z"
       id="path3625"
       inkscape:export-filename="/Users/andersbr/rails/coop/public/images/web_decorations/edit.png"
       inkscape:export-xdpi="2.3311617"
       inkscape:export-ydpi="2.3311617" />
    <path
       sodipodi:type="arc"
       id="path2818"
       style="fill:#000000;stroke:none"
       sodipodi:cx="471.42856"
       sodipodi:cy="752.36218"
       sodipodi:rx="1.5"
       sodipodi:ry="1.5"
       d="m 472.92856,752.36218 a 1.5,1.5 0 1 1 -3,0 1.5,1.5 0 1 1 3,0 z"
       inkscape:export-filename="/Users/andersbr/rails/coop/public/images/web_decorations/edit.png"
       inkscape:export-xdpi="2.3311617"
       inkscape:export-ydpi="2.3311617"
       transform="matrix(0.68396114,0,0,0.68396114,35.46954,403.50859)" />
    <path
       sodipodi:type="arc"
       id="path2820"
       style="fill:#000000;stroke:none"
       sodipodi:cx="468.57144"
       sodipodi:cy="129.50504"
       sodipodi:rx="1.5"
       sodipodi:ry="1.5"
       d="m 470.07144,129.50504 a 1.5,1.5 0 1 1 -3,0 1.5,1.5 0 1 1 3,0 z"
       inkscape:export-filename="/Users/andersbr/rails/coop/public/images/web_decorations/edit.png"
       inkscape:export-xdpi="2.3311617"
       inkscape:export-ydpi="2.3311617"
       transform="matrix(0.68396114,0,0,0.68396114,35.46954,403.50859)" />
    <path
       style="fill:#ffba00;fill-opacity:1;stroke:none"
       d="M 338.37882,407.20626 53.145695,695.53862 51.093812,695.32489 c 0,0 -0.544639,28.08753 10.7663,42.00864 12.702116,15.6334 41.022348,9.78004 41.022348,9.78004 0,0 -7.801397,35.16598 26.39666,70.34113 34.19805,35.17514 79.12575,36.14307 79.12575,36.14307 0,0 -0.97095,23.4654 10.75406,37.1446 11.72507,13.6792 35.17817,9.7709 35.17817,9.7709 l -0.0424,-0.8764 L 544.27288,613.09993 338.37917,407.20626 z"
       id="path2842"
       sodipodi:nodetypes="cccscscscccc"
       inkscape:export-filename="/Users/andersbr/rails/coop/public/images/web_decorations/edit.png"
       inkscape:export-xdpi="2.3311617"
       inkscape:export-ydpi="2.3311617" />
    <path
       style="fill:#cb9605;fill-opacity:1;stroke:none"
       d="M 498.81046,567.63789 207.614,853.55502 c 0.4731,0.0243 0.79087,0.0427 0.79087,0.0427 0,0 -0.97403,23.4684 10.75098,37.1476 11.72507,13.6793 35.18125,9.7679 35.18125,9.7679 l -0.0424,-0.8764 289.97819,-286.53694 -45.46208,-45.46204 z"
       id="path3633"
       inkscape:export-filename="/Users/andersbr/rails/coop/public/images/web_decorations/edit.png"
       inkscape:export-xdpi="2.3311617"
       inkscape:export-ydpi="2.3311617" />
    <path
       style="fill:#ffcf4b;fill-opacity:1;stroke:none"
       d="M 338.37882,407.20626 53.145695,695.53862 51.093812,695.32489 c 0,0 -0.538551,28.07837 10.772388,41.99949 12.564639,15.46415 40.30795,9.93275 40.90943,9.81056 L 385.87138,454.69881 338.37882,407.20626 z"
       id="path3638"
       inkscape:export-filename="/Users/andersbr/rails/coop/public/images/web_decorations/edit.png"
       inkscape:export-xdpi="2.3311617"
       inkscape:export-ydpi="2.3311617" />
    <path
       id="path3727"
       d="M 318.33835,404.79471 437.75886,282.62338 665.25863,511.74207 544.30311,632.36737 318.33835,404.79471 z"
       style="fill:#777777;fill-opacity:1;stroke:none"
       inkscape:export-filename="/Users/andersbr/rails/coop/public/images/web_decorations/edit.png"
       inkscape:export-xdpi="2.3311617"
       inkscape:export-ydpi="2.3311617" />
    <path
       style="fill:url(#linearGradient3778);fill-opacity:1;stroke:none"
       d="M 318.33835,404.79471 437.75886,282.62338 665.25863,511.74207 544.30311,632.36737 318.33835,404.79471 z"
       id="path3621"
       inkscape:export-filename="/Users/andersbr/rails/coop/public/images/web_decorations/edit.png"
       inkscape:export-xdpi="2.3311617"
       inkscape:export-ydpi="2.3311617" />
    <path
       style="fill:#333333;fill-opacity:1;stroke:none"
       d="m 50.131957,810.72196 0,89.79131 99.067533,0 C 123.28099,862.26413 80.379044,825.71816 50.131957,810.72196 z"
       id="path3627"
       sodipodi:nodetypes="cccc"
       inkscape:export-filename="/Users/andersbr/rails/coop/public/images/web_decorations/edit.png"
       inkscape:export-xdpi="2.3311617"
       inkscape:export-ydpi="2.3311617" />
  </g>
</svg>
