<?xml version="1.0" encoding="UTF-8" standalone="no"?>
<!-- Created with Inkscape (http://www.inkscape.org/) -->

<svg
   xmlns:dc="http://purl.org/dc/elements/1.1/"
   xmlns:cc="http://creativecommons.org/ns#"
   xmlns:rdf="http://www.w3.org/1999/02/22-rdf-syntax-ns#"
   xmlns:svg="http://www.w3.org/2000/svg"
   xmlns="http://www.w3.org/2000/svg"
   xmlns:sodipodi="http://sodipodi.sourceforge.net/DTD/sodipodi-0.dtd"
   xmlns:inkscape="http://www.inkscape.org/namespaces/inkscape"
   width="206.138"
   height="165.40189"
   id="svg8332"
   version="1.1"
   inkscape:version="0.47 r22583"
   sodipodi:docname="New document 8">
  <defs
     id="defs3">
    <inkscape:perspective
       sodipodi:type="inkscape:persp3d"
       inkscape:vp_x="0 : 526.18109 : 1"
       inkscape:vp_y="0 : 1000 : 0"
       inkscape:vp_z="744.09448 : 526.18109 : 1"
       inkscape:persp3d-origin="372.04724 : 350.78739 : 1"
       id="perspective8338" />
    <inkscape:perspective
       id="perspective8348"
       inkscape:persp3d-origin="0.5 : 0.33333333 : 1"
       inkscape:vp_z="1 : 0.5 : 1"
       inkscape:vp_y="0 : 1000 : 0"
       inkscape:vp_x="0 : 0.5 : 1"
       sodipodi:type="inkscape:persp3d" />
    <filter
       color-interpolation-filters="sRGB"
       inkscape:collect="always"
       id="filter8311">
      <feGaussianBlur
         inkscape:collect="always"
         stdDeviation="10.646268"
         id="feGaussianBlur8313" />
    </filter>
    <filter
       color-interpolation-filters="sRGB"
       inkscape:collect="always"
       id="filter8272">
      <feGaussianBlur
         inkscape:collect="always"
         stdDeviation="9.6046658"
         id="feGaussianBlur8274" />
    </filter>
  </defs>
  <sodipodi:namedview
     inkscape:document-units="mm"
     id="base"
     pagecolor="#ffffff"
     bordercolor="#666666"
     borderopacity="1.0"
     inkscape:pageopacity="0.0"
     inkscape:pageshadow="2"
     inkscape:zoom="1.882384"
     inkscape:cx="101.66291"
     inkscape:cy="39.255838"
     inkscape:current-layer="layer1"
     showgrid="false"
     inkscape:window-width="1920"
     inkscape:window-height="1030"
     inkscape:window-x="0"
     inkscape:window-y="0"
     inkscape:window-maximized="1" />
  <metadata
     id="metadata4">
    <rdf:RDF>
      <cc:Work
         rdf:about="">
        <dc:format>image/svg+xml</dc:format>
        <dc:type
           rdf:resource="http://purl.org/dc/dcmitype/StillImage" />
        <dc:title></dc:title>
      </cc:Work>
    </rdf:RDF>
  </metadata>
  <g
     inkscape:label="Layer 1"
     inkscape:groupmode="layer"
     id="layer1"
     transform="translate(-9.9838755,-8.6450015)">
    <g
       style="fill-rule:evenodd"
       id="g8315"
       transform="matrix(0.26431848,0,0,0.26431848,-973.7679,-593.0458)">
      <path
         transform="matrix(1.0467792,0,0,1.0467792,-207.70434,-136.48232)"
         sodipodi:nodetypes="cccccccccccccccccccccccccccccccccccccccc"
         d="m 4000.8424,2525.9862 -171.4551,73.5807 c -4.2811,1.8709 -4.8519,5.7395 0,8.1811 l 171.5159,73.9179 c 6.2329,2.7778 11.2018,1.0711 10.9928,-6.0986 l 0,-35.6721 c 0.044,-6.8838 1.6366,-8.427 8.5706,-8.5434 l 158.0318,0 c 7.3456,0.2251 10.8181,-2.9336 10.6618,-10.4546 l 0,-33.756 c 0.1971,-7.2431 -3.3162,-11.0616 -10.5396,-10.8441 l -158.154,0 c -6.9748,-0.1227 -8.4862,-1.5901 -8.5706,-8.4393 l 0,-35.8352 c 0.2376,-7.6299 -4.4742,-8.8349 -11.0536,-6.0364 z m 67.4165,-143.2972 0,122.9974 c -0.3015,6.7359 3.5148,10.618 10.4706,10.4233 l 33.3922,0 c 7.0318,0.2083 10.4429,-2.7715 10.258,-10.2602 l 0,-72.2003 c 0.087,-6.4333 2.335,-8.5452 8.7009,-8.5371 l 233.1335,0 c 6.583,0.1005 8.4365,1.8728 8.6183,8.4963 l 0,340.1286 c -0.046,5.2643 -2.8643,8.2048 -8.4552,8.4546 l -233.5526,0 c -5.963,-0.041 -8.446,-2.2738 -8.4449,-8.4872 l 0,-73.0647 c 0.2365,-7.6501 -3.0332,-10.8566 -10.421,-10.5978 l -33.0661,0 c -7.2141,-0.014 -10.8809,2.9069 -10.6337,10.7202 l 0,124.5059 c -0.2065,6.9196 3.6643,10.6185 10.5114,10.4854 l 337.7134,0 c 6.507,0.093 10.5676,-3.4435 10.4696,-10.3631 l 0,-442.8236 c 0.071,-6.5378 -3.6908,-10.4257 -10.4289,-10.4406 l -337.8356,0 c -6.3307,-0.026 -10.5412,3.8212 -10.4299,10.5629 z"
         style="opacity:0.98999999;fill:#000000;fill-rule:evenodd;stroke:#000000;stroke-width:43.01392365;stroke-linecap:butt;stroke-linejoin:miter;stroke-miterlimit:4;stroke-opacity:1;stroke-dasharray:none;filter:url(#filter8311)"
         id="path8242-9" />
      <g
         transform="matrix(0.87022489,0,0,0.87022489,530.40235,332.8177)"
         id="g8276">
        <path
           sodipodi:nodetypes="cccccccccccccccccccccccccccccccccccccccc"
           d="m 3945.7911,2480.6042 -206.2406,88.509 c -5.1496,2.2505 -5.8362,6.9039 0,9.8409 l 206.3137,88.9147 c 7.4975,3.3413 13.4745,1.2883 13.2231,-7.336 l 0,-42.9094 c 0.053,-8.2804 1.9686,-10.1367 10.3094,-10.2767 l 190.0938,0 c 8.836,0.2708 13.013,-3.5288 12.825,-12.5756 l 0,-40.6046 c 0.237,-8.7126 -3.989,-13.3058 -12.678,-13.0442 l -190.2408,0 c -8.3899,-0.1472 -10.2079,-1.9127 -10.3094,-10.1514 l 0,-43.1056 c 0.2858,-9.1779 -5.382,-10.6274 -13.2962,-7.2611 z m 81.0942,-172.3699 0,147.9516 c -0.3628,8.1025 4.2279,12.7722 12.5949,12.538 l 40.1669,0 c 8.4584,0.2506 12.5616,-3.3338 12.3392,-12.3418 l 0,-86.8486 c 0.1047,-7.7385 2.8087,-10.2789 10.4662,-10.2691 l 280.4324,0 c 7.9186,0.121 10.1481,2.2527 10.3668,10.22 l 0,409.1351 c -0.055,6.3324 -3.4454,9.8695 -10.1706,10.1699 l -280.9366,0 c -7.1728,-0.049 -10.1595,-2.7351 -10.1582,-10.2091 l 0,-87.8883 c 0.2845,-9.2022 -3.6486,-13.0592 -12.5353,-12.7479 l -39.7746,0 c -8.6777,-0.017 -13.0885,3.4966 -12.7911,12.8951 l 0,149.7661 c -0.2484,8.3235 4.4077,12.7729 12.644,12.6127 l 406.2298,0 c 7.8272,0.1112 12.7117,-4.1421 12.5938,-12.4656 l 0,-532.6652 c 0.085,-7.8642 -4.4397,-12.5409 -12.5448,-12.5588 l -406.3769,0 c -7.6151,-0.031 -12.6798,4.5965 -12.5459,12.7059 z"
           style="fill:#008000;stroke:#008000;stroke-width:51.74074173;stroke-linecap:butt;stroke-linejoin:miter;stroke-miterlimit:4;stroke-opacity:1;stroke-dasharray:none"
           id="path8242" />
        <path
           id="path8234"
           style="fill:#ffffff;stroke:#008000;stroke-width:7.39153481;stroke-linecap:butt;stroke-linejoin:miter;stroke-miterlimit:4;stroke-opacity:1;stroke-dasharray:none;filter:url(#filter8272)"
           d="m 3945.7911,2480.6042 -206.2406,88.509 c -5.1496,2.2505 -5.8362,6.9039 0,9.8409 l 206.3137,88.9147 c 7.4975,3.3413 13.4745,1.2883 13.2231,-7.336 l 0,-42.9094 c 0.053,-8.2804 1.9686,-10.1367 10.3094,-10.2767 l 190.0938,0 c 8.836,0.2708 13.013,-3.5288 12.825,-12.5756 l 0,-40.6046 c 0.237,-8.7126 -3.989,-13.3058 -12.678,-13.0442 l -190.2408,0 c -8.3899,-0.1472 -10.2079,-1.9127 -10.3094,-10.1514 l 0,-43.1056 c 0.2858,-9.1779 -5.382,-10.6274 -13.2962,-7.2611 z m 81.0942,-172.3699 0,147.9516 c -0.3628,8.1025 4.2279,12.7722 12.5949,12.538 l 40.1669,0 c 8.4584,0.2506 12.5616,-3.3338 12.3392,-12.3418 l 0,-86.8486 c 0.1047,-7.7385 2.8087,-10.2789 10.4662,-10.2691 l 280.4324,0 c 7.9186,0.121 10.1481,2.2527 10.3668,10.22 l 0,409.1351 c -0.055,6.3324 -3.4454,9.8695 -10.1706,10.1699 l -280.9366,0 c -7.1728,-0.049 -10.1595,-2.7351 -10.1582,-10.2091 l 0,-87.8883 c 0.2845,-9.2022 -3.6486,-13.0592 -12.5353,-12.7479 l -39.7746,0 c -8.6777,-0.017 -13.0885,3.4966 -12.7911,12.8951 l 0,149.7661 c -0.2484,8.3235 4.4077,12.7729 12.644,12.6127 l 406.2298,0 c 7.8272,0.1112 12.7117,-4.1421 12.5938,-12.4656 l 0,-532.6652 c 0.085,-7.8642 -4.4397,-12.5409 -12.5448,-12.5588 l -406.3769,0 c -7.6151,-0.031 -12.6798,4.5965 -12.5459,12.7059 z"
           sodipodi:nodetypes="cccccccccccccccccccccccccccccccccccccccc" />
      </g>
    </g>
  </g>
</svg>
